<?xml version="1.0" encoding="UTF-8"?>
<svg width="35px" height="35px" viewBox="0 0 35 35" version="1.1" xmlns="http://www.w3.org/2000/svg" xmlns:xlink="http://www.w3.org/1999/xlink">
    <!-- Generator: Sketch 54 (76480) - https://sketchapp.com -->
    <title>Oval</title>
    <desc>Created with Sketch.</desc>
    <g id="Page-1" stroke="none" stroke-width="1" fill="none" fill-rule="evenodd">
        <g id="C" transform="translate(-937.000000, -378.000000)" fill="#000000">
            <path d="M954.5,413 C944.835017,413 937,405.164983 937,395.5 C937,385.835017 944.835017,378 954.5,378 C964.164983,378 972,385.835017 972,395.5 C972,405.164983 964.164983,413 954.5,413 Z M956.384615,395.5 L960.221154,391.663462 C960.759615,391.125 960.759615,390.317308 960.221154,389.778846 C959.682692,389.240385 958.875,389.240385 958.336538,389.778846 L954.5,393.615385 L950.663462,389.778846 C950.125,389.240385 949.317308,389.240385 948.778846,389.778846 C948.240385,390.317308 948.240385,391.125 948.778846,391.663462 L952.615385,395.5 L948.778846,399.336538 C948.240385,399.875 948.240385,400.682692 948.778846,401.221154 C949.317308,401.759615 950.125,401.759615 950.663462,401.221154 L954.5,397.384615 L958.336538,401.221154 C958.875,401.759615 959.682692,401.759615 960.221154,401.221154 C960.759615,400.682692 960.759615,399.875 960.221154,399.336538 L956.384615,395.5 Z" id="Combined-Shape"></path>
        </g>
    </g>
</svg>