<?xml version="1.0" encoding="UTF-8"?>
<svg width="35px" height="35px" viewBox="0 0 35 35" version="1.1" xmlns="http://www.w3.org/2000/svg" xmlns:xlink="http://www.w3.org/1999/xlink">
    <!-- Generator: Sketch 54 (76480) - https://sketchapp.com -->
    <title>Group 9</title>
    <desc>Created with Sketch.</desc>
    <g id="Page-1" stroke="none" stroke-width="1" fill="none" fill-rule="evenodd">
        <g id="C" transform="translate(-988.000000, -378.000000)" fill="#6EBE4A">
            <g id="Group-9" transform="translate(988.000000, 378.000000)">
                <path d="M17.5,35 C7.83501688,35 0,27.1649831 0,17.5 C0,7.83501688 7.83501688,0 17.5,0 C27.1649831,0 35,7.83501688 35,17.5 C35,27.1649831 27.1649831,35 17.5,35 Z M10.5333984,18.782767 L15.6796783,24 L25.4256029,13.7538337 C25.7561584,13.4487571 25.7561584,12.4581236 25.4256029,12.1094646 C25.0950473,11.7608056 23.9086684,11.7608056 23.5781128,12.1094646 L15.6796783,20.1584236 C15.6796783,20.1584236 14.6123472,19.0748677 13.8826685,18.3320749 C13.4278564,17.8690886 12.5182322,16.9431161 12.5182322,16.9431161 C12.1876766,16.5944571 11.1729616,16.8554174 10.842406,17.160494 C10.5118505,17.4655706 10.2028429,18.434108 10.5333984,18.782767 Z" id="Combined-Shape"></path>
            </g>
        </g>
    </g>
</svg>