<svg id="Layer_1" data-name="Layer 1" xmlns="http://www.w3.org/2000/svg" xmlns:xlink="http://www.w3.org/1999/xlink" viewBox="0 0 50 50"><defs><style>.cls-1{fill:none;clip-rule:evenodd;}.cls-2{fill:#c6c7ca;}.cls-3{clip-path:url(#clip-path);}</style><clipPath id="clip-path"><path class="cls-1" d="M-325.59,230.91a.83.83,0,0,1-.84.82.83.83,0,0,1-.84-.82v-5a.84.84,0,0,1,.84-.83.84.84,0,0,1,.84.83Zm-.25,3.47a.83.83,0,0,1-.59.25.83.83,0,0,1-.59-.25.83.83,0,0,1-.25-.58.87.87,0,0,1,.25-.58.91.91,0,0,1,1.18,0,.87.87,0,0,1,.25.58A.83.83,0,0,1-325.84,234.38Zm9.34,1.66-9.3-15.85a.67.67,0,0,0-1.26,0L-336.31,236c-.34.58-.05,1.07.62,1.07h18.56A.66.66,0,0,0-316.5,236Z"/></clipPath></defs><title>Icons</title><path class="cls-2" d="M43.82,6.37l5.44,5.53L18.54,43l-.09-.19-.19.19L.42,24.87l5.44-5.43L18.45,32.12Z"/></svg>