<?xml version="1.0" encoding="UTF-8"?>
<svg xmlns="http://www.w3.org/2000/svg" width="1em" height="1em" viewBox="0 0 16 17" data-testid="icon" class="icon css-rg8cg6">
    <g fill="currentColor" fill-rule="evenodd">
        <path d="M7.936.061L4.904 1.638a.25.25 0 00-.01.439l3.033 1.75a.25.25 0 00.253-.002l2.94-1.75a.25.25 0 00-.01-.435L8.17.062a.25.25 0 00-.234-.001zM4.638 6.862l2.5 1.256a.25.25 0 00.362-.223v-3.05a.25.25 0 00-.127-.217l-2.5-1.416a.25.25 0 00-.373.217v3.21a.25.25 0 00.138.223zM8.5 4.846v3.049a.25.25 0 00.362.223l2.5-1.256a.25.25 0 00.138-.223v-3.21a.25.25 0 00-.373-.217l-2.5 1.416a.25.25 0 00-.127.218zM3.436 8.061L.404 9.638a.25.25 0 00-.01.439l3.033 1.75a.25.25 0 00.253-.002l2.94-1.75a.25.25 0 00-.01-.435L3.67 8.062a.25.25 0 00-.234-.001zM.138 14.862l2.5 1.256A.25.25 0 003 15.895v-3.05a.25.25 0 00-.127-.217l-2.5-1.416a.25.25 0 00-.373.217v3.21a.25.25 0 00.138.223zM4 12.846v3.049a.25.25 0 00.362.223l2.5-1.256A.25.25 0 007 14.64v-3.21a.25.25 0 00-.373-.217l-2.5 1.416a.25.25 0 00-.127.218zM12.436 8.061L9.404 9.638a.25.25 0 00-.01.439l3.033 1.75a.25.25 0 00.253-.002l2.94-1.75a.25.25 0 00-.01-.435l-2.94-1.578a.25.25 0 00-.234-.001zm-3.298 6.801l2.5 1.256a.25.25 0 00.362-.223v-3.05a.25.25 0 00-.127-.217l-2.5-1.416a.25.25 0 00-.373.217v3.21a.25.25 0 00.138.223zM13 12.846v3.049a.25.25 0 00.362.223l2.5-1.256A.25.25 0 0016 14.64v-3.21a.25.25 0 00-.373-.217l-2.5 1.416a.25.25 0 00-.127.218z"></path>
    </g>
</svg>