<svg id="Layer_1" data-name="Layer 1" xmlns="http://www.w3.org/2000/svg" xmlns:xlink="http://www.w3.org/1999/xlink" viewBox="0 0 50 50"><defs><style>.cls-1{fill:none;clip-rule:evenodd;}.cls-2{fill:#58585b;}.cls-3{clip-path:url(#clip-path);}</style><clipPath id="clip-path"><path class="cls-1" d="M25.41,111.91a.84.84,0,0,1-1.68,0v-5a.84.84,0,0,1,1.68,0Zm-.25,3.47a.84.84,0,0,1-1.43-.58.87.87,0,0,1,.25-.58.91.91,0,0,1,1.18,0,.87.87,0,0,1,.25.58A.83.83,0,0,1,25.16,115.38ZM34.5,117l-9.3-15.85a.67.67,0,0,0-1.26,0L14.69,117c-.34.58,0,1.07.62,1.07H33.87A.66.66,0,0,0,34.5,117Z"/></clipPath></defs><title>Icons</title><path class="cls-2" d="M33.33,21.81h-.47l-11.4,3.11q-.66.2-.66.75c-.07.32-.14,1-.24,2.12a44.58,44.58,0,0,0,0,4.67,27.75,27.75,0,0,0,.66,5.37,2.19,2.19,0,0,1-.75.1q-5.57,0-10.79-7.64T4.4,15.4q0-6.78,4.52-10.51a17.52,17.52,0,0,1,11.5-3.72A17.67,17.67,0,0,1,32,4.89q4.57,3.74,4.58,10.51a21.27,21.27,0,0,1-1.32,7ZM15.8,14.65a8.53,8.53,0,0,0-7.91-2.17,7.35,7.35,0,0,0,2.35,7.45,8.53,8.53,0,0,0,7.92,2.16A7.21,7.21,0,0,0,15.8,14.65Zm17.25-2.17a8.67,8.67,0,0,0-8,2.17,7.37,7.37,0,0,0-2.36,7.44,8.66,8.66,0,0,0,8-2.16A7.55,7.55,0,0,0,33.05,12.48ZM43.32,43.11A20.23,20.23,0,0,1,41.72,45a14.72,14.72,0,0,1-1.65,1.51c-.54.41-1.07.79-1.6,1.13a9,9,0,0,1-1.51.8c-.47.19-.88.36-1.23.52a4.78,4.78,0,0,1-.89.33l-.38.09H34l-.38-.09a4.78,4.78,0,0,1-.89-.33c-.35-.16-.76-.33-1.23-.52a8.52,8.52,0,0,1-1.5-.8c-.54-.34-1.07-.72-1.61-1.13A14.72,14.72,0,0,1,26.73,45a20.23,20.23,0,0,1-1.6-1.93,14.49,14.49,0,0,1-2-6.13,33.18,33.18,0,0,1-.38-6.26,17.79,17.79,0,0,1,.33-3.07c0-.31.19-.53.56-.66a23.74,23.74,0,0,0,5.56-.84,13.86,13.86,0,0,0,2.31-.81l1.84-.8.66-.37a.55.55,0,0,1,.47,0,17.53,17.53,0,0,0,4.71,2.07,17.06,17.06,0,0,0,2.64.57,19,19,0,0,0,2.26.18h.76c.38.13.56.35.56.66a17.79,17.79,0,0,1,.33,3.07A33.9,33.9,0,0,1,45.35,37,14.49,14.49,0,0,1,43.32,43.11Z"/></svg>