<svg id="Layer_1" data-name="Layer 1" xmlns="http://www.w3.org/2000/svg" xmlns:xlink="http://www.w3.org/1999/xlink" viewBox="0 0 50 50"><defs><style>.cls-1{fill:none;clip-rule:evenodd;}.cls-2{fill:#c6c7ca;}.cls-3{clip-path:url(#clip-path);}</style><clipPath id="clip-path"><path class="cls-1" d="M-205.59,230.91a.83.83,0,0,1-.84.82.83.83,0,0,1-.84-.82v-5a.84.84,0,0,1,.84-.83.84.84,0,0,1,.84.83Zm-.25,3.47a.83.83,0,0,1-.59.25.83.83,0,0,1-.59-.25.83.83,0,0,1-.25-.58.87.87,0,0,1,.25-.58.91.91,0,0,1,1.18,0,.87.87,0,0,1,.25.58A.83.83,0,0,1-205.84,234.38Zm9.34,1.66-9.3-15.85a.67.67,0,0,0-1.26,0L-216.31,236c-.34.58-.05,1.07.62,1.07h18.56A.66.66,0,0,0-196.5,236Z"/></clipPath></defs><title>Icons</title><path class="cls-2" d="M31.65,19.3l-3.22.85V14.66H19.15V5.48H7.6V33.12H19.44a17.24,17.24,0,0,0,1.13,4.64H7.6a4.46,4.46,0,0,1-3.26-1.37A4.46,4.46,0,0,1,3,33.12V5.48A4.42,4.42,0,0,1,4.34,2.22,4.43,4.43,0,0,1,7.6.84H21.42L33,12.39v7.1l-.85-.19C31.93,19.18,31.77,19.18,31.65,19.3ZM44.43,43a20.87,20.87,0,0,1-1.61,1.95,13.93,13.93,0,0,1-1.66,1.51c-.54.41-1.07.79-1.61,1.14a9.74,9.74,0,0,1-1.51.8c-.48.19-.89.36-1.23.52a5.11,5.11,0,0,1-.9.33l-.38.1h-.38a17.1,17.1,0,0,1-9-6.35,14.54,14.54,0,0,1-2-6.15,34.35,34.35,0,0,1-.38-6.29,20.41,20.41,0,0,1,.33-3.08.75.75,0,0,1,.67-.66,22.78,22.78,0,0,0,5.49-.85,14.61,14.61,0,0,0,2.32-.81l1.84-.8.66-.38a.66.66,0,0,1,.48,0,21.64,21.64,0,0,0,4.73,1.89l5.68,1q.57.2.57.66a20.41,20.41,0,0,1,.33,3.08,34.35,34.35,0,0,1-.38,6.29A14.68,14.68,0,0,1,44.43,43Z"/></svg>