<svg id="Layer_1" data-name="Layer 1" xmlns="http://www.w3.org/2000/svg" xmlns:xlink="http://www.w3.org/1999/xlink" viewBox="0 0 50 50"><defs><style>.cls-1{fill:none;clip-rule:evenodd;}.cls-2{fill:#c6c7ca;}.cls-3{clip-path:url(#clip-path);}</style><clipPath id="clip-path"><path class="cls-1" d="M-89.59,230.91a.83.83,0,0,1-.84.82.83.83,0,0,1-.84-.82v-5a.84.84,0,0,1,.84-.83.84.84,0,0,1,.84.83Zm-.25,3.47a.83.83,0,0,1-.59.25.83.83,0,0,1-.59-.25.83.83,0,0,1-.25-.58.87.87,0,0,1,.25-.58.91.91,0,0,1,1.18,0,.87.87,0,0,1,.25.58A.83.83,0,0,1-89.84,234.38ZM-80.5,236l-9.3-15.85a.67.67,0,0,0-1.26,0L-100.31,236c-.34.58,0,1.07.62,1.07h18.56A.66.66,0,0,0-80.5,236Z"/></clipPath></defs><title>Icons</title><path class="cls-2" d="M30.8,5.16H5.31V39.87H24A13.29,13.29,0,0,0,25,44.53H5.31A4.47,4.47,0,0,1,2,43.15,4.47,4.47,0,0,1,.65,39.87V5.16A4.47,4.47,0,0,1,2,1.88,4.47,4.47,0,0,1,5.31.5H30.8a4.49,4.49,0,0,1,3.28,1.38,4.47,4.47,0,0,1,1.38,3.28V24.08a18,18,0,0,0-4.66,2ZM7.6,9.82h4.66v4.56H7.6Zm4.66,11.5H7.6V16.76h4.66Zm0,7H7.6V23.7h4.66ZM14.54,9.82h14v4.56h-14Zm14,11.5h-14V16.76h14Zm-14,2.38h14v4.19l-.48.47H14.54ZM38.88,49.19A10.4,10.4,0,0,1,28.52,38.73,10.38,10.38,0,0,1,38.88,28.36a10.13,10.13,0,0,1,7.42,3,10.45,10.45,0,0,1,0,14.74A10.1,10.1,0,0,1,38.88,49.19ZM40,37.58V30.64H37.74v9.23h9.32V37.58Z"/></svg>